<?xml version="1.0" encoding="UTF-8"?>
<svg width="216px" height="60px" viewBox="0 0 216 60" version="1.1" xmlns="http://www.w3.org/2000/svg" xmlns:xlink="http://www.w3.org/1999/xlink">
    <title>Group 53</title>
    <defs>
        <polygon id="path-1" points="0 1.488 31.8821143 1.488 31.8821143 34.476 0 34.476"></polygon>
        <polygon id="path-3" points="0 0.251657143 31.8821143 0.251657143 31.8821143 33.2379429 0 33.2379429"></polygon>
    </defs>
    <g id="Page-1" stroke="none" stroke-width="1" fill="none" fill-rule="evenodd">
        <g id="09-01-Mega-nav-residence" transform="translate(-120.000000, -46.000000)">
            <g id="Group-53" transform="translate(120.000000, 46.000000)">
                <path d="M65.3463429,10.8270857 L65.3463429,3.14537143 C64.5663429,3.0168 63.9989143,2.95165714 63.1469143,2.95165714 C59.0994857,2.95165714 54.6954857,5.27622857 52.8492,10.1173714 L52.5646286,10.1173714 L52.2817714,3.72651429 L45.3629143,3.72651429 C45.5754857,6.56708571 44.6823429,9.60137143 44.6823429,14.2488 L44.6823429,35.1648 L53.8434857,35.1648 L53.8434857,18.9613714 C53.8434857,18.2516571 53.9154857,17.4768 53.9857714,16.7653714 C54.7657714,13.0865143 57.7486286,10.5682286 62.4354857,10.5682286 C63.6423429,10.5682286 64.4960571,10.6985143 65.3463429,10.8270857" id="Fill-1" fill="#626366"></path>
                <path d="M65.3463429,9.59005714 L65.3463429,1.90834286 C64.5663429,1.78148571 63.9989143,1.71462857 63.1469143,1.71462857 C59.0994857,1.71462857 54.6954857,4.0392 52.8492,8.88034286 L52.5646286,8.88034286 L52.2817714,2.48948571 L44.3994857,2.48948571 C44.6120571,5.33005714 44.6823429,8.36605714 44.6823429,13.0117714 L44.6823429,33.9277714 L53.8434857,33.9277714 L53.8434857,17.7243429 C53.8434857,17.0146286 53.9154857,16.2397714 53.9857714,15.5300571 C54.7657714,11.8494857 57.7486286,9.3312 62.4354857,9.3312 C63.6423429,9.3312 64.4960571,9.46148571 65.3463429,9.59005714" id="Fill-3" fill="#B5B7B9"></path>
                <path d="M189.8136,15.9917143 C190.238743,12.9574286 192.796457,8.50371429 198.830743,8.50371429 C205.718743,8.50371429 206.9976,13.7974286 206.9976,15.9917143 L189.8136,15.9917143 Z M215.5896,18.5734286 C215.5896,12.1825714 211.967314,2.95114286 199.399886,2.95114286 C187.045029,2.95114286 181.151314,11.7968571 181.151314,19.866 C181.151314,29.4831429 188.322171,35.9374286 200.322171,35.9374286 C205.933029,35.9374286 210.265029,34.9705714 213.529029,33.7431429 L212.179886,28.1288571 C209.128457,29.0957143 206.003314,29.6768571 201.529029,29.6768571 C195.350743,29.6768571 190.098171,27.03 189.8136,21.7362857 L215.234743,21.7362857 C215.447314,21.1551429 215.5896,19.9294286 215.5896,18.5734286 L215.5896,18.5734286 Z" id="Fill-5" fill="#626366"></path>
                <path d="M189.8136,14.7538286 C190.238743,11.7195429 192.796457,7.26582857 198.830743,7.26582857 C205.718743,7.26582857 206.9976,12.5595429 206.9976,14.7538286 L189.8136,14.7538286 Z M215.5896,17.3355429 C215.5896,10.9446857 211.967314,1.71497143 199.399886,1.71497143 C187.045029,1.71497143 181.151314,10.5589714 181.151314,18.6281143 C181.151314,28.2452571 188.322171,34.7012571 200.322171,34.7012571 C205.933029,34.7012571 210.265029,33.7326857 213.529029,32.5052571 L212.179886,26.8909714 C209.128457,27.8578286 206.003314,28.4389714 201.529029,28.4389714 C195.350743,28.4389714 190.098171,25.7921143 189.8136,20.5001143 L215.234743,20.5001143 C215.447314,19.9172571 215.5896,18.6915429 215.5896,17.3355429 L215.5896,17.3355429 Z" id="Fill-7" fill="#B5B7B9"></path>
                <path d="M101.420743,34.1316 L100.1436,28.0630286 C98.2270286,28.7093143 95.7396,29.4190286 92.1893143,29.4190286 C85.7984571,29.4190286 80.5441714,25.8036 80.5441714,19.3476 C80.4738857,13.6030286 84.8761714,9.34302857 92.1190286,9.34302857 C95.7396,9.34302857 98.1533143,9.9876 99.7167429,10.6990286 L101.420743,4.56531429 C99.0756,3.66188571 95.4550286,2.95217143 91.8344571,2.95217143 C78.6978857,2.95217143 71.1704571,10.3767429 71.1704571,19.8001714 C71.1704571,29.3556 78.6258857,35.9384571 90.3430286,35.9384571 C95.3144571,35.9384571 99.3618857,34.9716 101.420743,34.1316" id="Fill-9" fill="#626366"></path>
                <path d="M101.420743,32.8944 L100.1436,26.8241143 C98.2270286,27.4721143 95.7396,28.1801143 92.1893143,28.1801143 C85.7984571,28.1801143 80.5441714,24.5664 80.5441714,18.1104 C80.4738857,12.3658286 84.8761714,8.10582857 92.1190286,8.10582857 C95.7396,8.10582857 98.1533143,8.75211429 99.7167429,9.46182857 L101.420743,3.32811429 C99.0756,2.42468571 95.4550286,1.71497143 91.8344571,1.71497143 C78.6978857,1.71497143 71.1704571,9.13954286 71.1704571,18.5646857 C71.1704571,28.1184 78.6258857,34.7029714 90.3430286,34.7029714 C95.3144571,34.7029714 99.3618857,33.7326857 101.420743,32.8944" id="Fill-11" fill="#B5B7B9"></path>
                <g id="Group-15" transform="translate(0.000000, 1.463314)">
                    <mask id="mask-2" fill="white">
                        <use xlink:href="#path-1"></use>
                    </mask>
                    <g id="Clip-14"></g>
                    <path d="M22.5084,22.2754286 C22.5084,22.7914286 22.4381143,23.4377143 22.2255429,24.0188571 C21.3015429,26.2782857 18.6032571,28.6011429 14.5558286,28.6011429 C11.4306857,28.6011429 9.15754286,27.1165714 9.15754286,24.2125714 C9.15754286,19.6285714 15.2655429,18.3377143 22.5084,18.4011429 L22.5084,22.2754286 Z M31.3146857,26.0194286 L31.3146857,15.1097143 C31.3146857,8.13771429 27.9049714,1.488 16.0472571,1.488 C10.2238286,1.488 5.46668571,2.844 2.55582857,4.45885714 L4.33011429,9.75257143 C6.88611429,8.33142857 10.9335429,7.23428571 14.6261143,7.23428571 C21.5141143,7.23428571 22.2255429,11.0434286 22.2255429,12.6565714 L22.2255429,13.1091429 C7.88211429,13.044 -0.000171428571,17.2388571 -0.000171428571,25.116 C-0.000171428571,29.6348571 3.97525714,34.476 11.6449714,34.476 C16.6146857,34.476 20.5935429,32.6022857 22.7929714,30.0857143 L23.0055429,30.0857143 L23.6449714,33.7011429 L31.8821143,33.7011429 C31.5272571,31.8291429 31.3146857,28.9885714 31.3146857,26.0194286 L31.3146857,26.0194286 Z" id="Fill-13" fill="#626366" mask="url(#mask-2)"></path>
                </g>
                <g id="Group-18" transform="translate(0.000000, 1.463314)">
                    <mask id="mask-4" fill="white">
                        <use xlink:href="#path-3"></use>
                    </mask>
                    <g id="Clip-17"></g>
                    <path d="M22.5084,21.0373714 C22.5084,21.5533714 22.4381143,22.1996571 22.2255429,22.7808 C21.3015429,25.0402286 18.6032571,27.3630857 14.5558286,27.3630857 C11.4306857,27.3630857 9.15754286,25.8785143 9.15754286,22.9745143 C9.15754286,18.3905143 15.2655429,17.0996571 22.5084,17.1630857 L22.5084,21.0373714 Z M31.3146857,24.7813714 L31.3146857,13.8716571 C31.3146857,6.90137143 27.9049714,0.251657143 16.0472571,0.251657143 C10.2238286,0.251657143 5.46668571,1.60594286 2.55582857,3.2208 L4.33011429,8.51451429 C6.88611429,7.09337143 10.9335429,5.99622857 14.6261143,5.99622857 C21.5141143,5.99622857 22.2255429,9.80537143 22.2255429,11.4185143 L22.2255429,11.8710857 C7.88211429,11.8059429 -0.000171428571,16.0025143 -0.000171428571,23.8779429 C-0.000171428571,28.3968 3.97525714,33.2379429 11.6449714,33.2379429 C16.6146857,33.2379429 20.5935429,31.3659429 22.7929714,28.8476571 L23.0055429,28.8476571 L23.6449714,32.4648 L31.8821143,32.4648 C31.5272571,30.5910857 31.3146857,27.7505143 31.3146857,24.7813714 L31.3146857,24.7813714 Z" id="Fill-16" fill="#B5B7B9" mask="url(#mask-4)"></path>
                </g>
                <path d="M132.241029,23.9765143 C132.241029,24.4925143 132.170743,25.1388 131.956457,25.7199429 C131.034171,27.9793714 128.335886,30.3022286 124.286743,30.3022286 C121.163314,30.3022286 118.890171,28.8176571 118.890171,25.9136571 C118.890171,21.3296571 124.994743,20.0388 132.241029,20.1039429 L132.241029,23.9765143 Z M141.047314,27.7205143 L141.047314,16.8108 C141.047314,9.84051429 137.635886,3.1908 125.778171,3.1908 C119.956457,3.1908 115.1976,4.5468 112.285029,6.15994286 L114.062743,11.4536571 C116.618743,10.0325143 120.666171,8.93708571 124.357029,8.93708571 C131.246743,8.93708571 131.956457,12.7445143 131.956457,14.3576571 L131.956457,14.8102286 C117.613029,14.7450857 109.729029,18.9416571 109.729029,26.8170857 C109.729029,31.3376571 113.706171,36.1770857 121.3776,36.1770857 C126.347314,36.1770857 130.324457,34.3050857 132.523886,31.7885143 L132.738171,31.7885143 L133.3776,35.4022286 L141.614743,35.4022286 C141.258171,33.5302286 141.047314,30.6896571 141.047314,27.7205143 L141.047314,27.7205143 Z" id="Fill-19" fill="#626366"></path>
                <path d="M132.241029,22.7401714 C132.241029,23.2561714 132.170743,23.9024571 131.956457,24.4836 C131.034171,26.7430286 128.335886,29.0658857 124.286743,29.0658857 C121.163314,29.0658857 118.890171,27.5813143 118.890171,24.6773143 C118.890171,20.0933143 124.994743,18.8024571 132.241029,18.8658857 L132.241029,22.7401714 Z M141.047314,26.4841714 L141.047314,15.5744571 C141.047314,8.60245714 137.635886,1.95274286 125.778171,1.95274286 C119.956457,1.95274286 115.1976,3.30874286 112.285029,4.9236 L114.062743,10.2173143 C116.618743,8.79617143 120.666171,7.69902857 124.357029,7.69902857 C131.246743,7.69902857 131.956457,11.5081714 131.956457,13.1213143 L131.956457,13.5738857 C117.613029,13.5087429 109.729029,17.7036 109.729029,25.5807429 C109.729029,30.0996 113.706171,34.9407429 121.3776,34.9407429 C126.347314,34.9407429 130.324457,33.0687429 132.523886,30.5504571 L132.738171,30.5504571 L133.3776,34.1658857 L141.614743,34.1658857 C141.258171,32.2938857 141.047314,29.4533143 141.047314,26.4841714 L141.047314,26.4841714 Z" id="Fill-21" fill="#B5B7B9"></path>
                <path d="M175.474971,10.8270857 L175.474971,3.14537143 C174.694971,3.0168 174.127543,2.95165714 173.275543,2.95165714 C169.228114,2.95165714 164.824114,5.27622857 162.977829,10.1173714 L162.694971,10.1173714 L162.4104,3.72651429 L155.493257,3.72651429 C155.704114,6.56708571 154.810971,9.60137143 154.810971,14.2488 L154.810971,35.1648 L163.972114,35.1648 L163.972114,18.9613714 C163.972114,18.2516571 164.044114,17.4768 164.1144,16.7653714 C164.8944,13.0865143 167.877257,10.5682286 172.565829,10.5682286 C173.770971,10.5682286 174.624686,10.6985143 175.474971,10.8270857" id="Fill-23" fill="#626366"></path>
                <path d="M175.474971,9.59005714 L175.474971,1.90834286 C174.694971,1.78148571 174.127543,1.71462857 173.275543,1.71462857 C169.228114,1.71462857 164.824114,4.0392 162.977829,8.88034286 L162.694971,8.88034286 L162.4104,2.48948571 L154.528114,2.48948571 C154.740686,5.33005714 154.810971,8.36605714 154.810971,13.0117714 L154.810971,33.9277714 L163.972114,33.9277714 L163.972114,17.7243429 C163.972114,17.0146286 164.044114,16.2397714 164.1144,15.5300571 C164.8944,11.8494857 167.877257,9.3312 172.565829,9.3312 C173.770971,9.3312 174.624686,9.46148571 175.474971,9.59005714" id="Fill-25" fill="#B5B7B9"></path>
                <path d="M54.3716571,49.6455429 C54.3150857,49.6455429 54.2379429,49.6506857 54.1419429,49.6558286 L49.0453714,49.6644 L47.4939429,44.8421143 C47.4322286,44.5695429 47.3670857,44.3946857 47.3019429,44.3141143 C47.2350857,44.2352571 47.1356571,44.1941143 47.0036571,44.1941143 C46.8630857,44.1941143 46.7619429,44.2352571 46.6985143,44.3141143 C46.6368,44.3946857 46.5733714,44.5695429 46.5116571,44.8421143 L44.9859429,49.6644 L39.8550857,49.6558286 C39.7642286,49.6506857 39.6939429,49.6455429 39.6459429,49.6455429 C39.2533714,49.6455429 39.0596571,49.8032571 39.0596571,50.1152571 C39.0596571,50.2678286 39.1830857,50.4255429 39.4265143,50.5866857 L43.6728,53.7752571 L41.9842286,58.9318286 C41.9362286,59.0432571 41.9105143,59.1255429 41.9105143,59.1821143 C41.9105143,59.2729714 41.9516571,59.3604 42.0305143,59.4478286 C42.1128,59.5386857 42.2053714,59.5781143 42.3099429,59.5781143 C42.4333714,59.5781143 42.5842286,59.5009714 42.7573714,59.3501143 L46.9745143,56.2009714 L51.2482286,59.3501143 C51.4213714,59.5009714 51.5756571,59.5781143 51.7076571,59.5781143 C51.7985143,59.5781143 51.8859429,59.5386857 51.9699429,59.4478286 C52.0539429,59.3604 52.0950857,59.2764 52.0950857,59.1924 C52.0950857,59.1306857 52.0693714,59.0432571 52.0230857,58.9318286 L50.3585143,53.7426857 L54.5790857,50.5866857 C54.8242286,50.4255429 54.9459429,50.2678286 54.9459429,50.1152571 C54.9459429,49.8032571 54.7539429,49.6455429 54.3716571,49.6455429" id="Fill-27" fill="#472D8B"></path>
                <path d="M73.8984,49.6455429 C73.8418286,49.6455429 73.7646857,49.6506857 73.6686857,49.6558286 L68.5721143,49.6644 L67.0206857,44.8421143 C66.9589714,44.5695429 66.8938286,44.3946857 66.8286857,44.3141143 C66.7618286,44.2352571 66.6624,44.1941143 66.5304,44.1941143 C66.3915429,44.1941143 66.2904,44.2352571 66.2252571,44.3141143 C66.1635429,44.3946857 66.1001143,44.5695429 66.0384,44.8421143 L64.5144,49.6644 L59.3818286,49.6558286 C59.2909714,49.6506857 59.2206857,49.6455429 59.1726857,49.6455429 C58.7818286,49.6455429 58.5864,49.8032571 58.5864,50.1152571 C58.5864,50.2678286 58.7098286,50.4255429 58.9532571,50.5866857 L63.1995429,53.7752571 L61.5109714,58.9318286 C61.4629714,59.0432571 61.4372571,59.1255429 61.4372571,59.1821143 C61.4372571,59.2729714 61.4784,59.3604 61.5572571,59.4478286 C61.6395429,59.5386857 61.7321143,59.5781143 61.8366857,59.5781143 C61.9601143,59.5781143 62.1109714,59.5009714 62.2841143,59.3501143 L66.5012571,56.2009714 L70.7749714,59.3501143 C70.9481143,59.5009714 71.1024,59.5781143 71.2344,59.5781143 C71.3252571,59.5781143 71.4126857,59.5386857 71.4949714,59.4478286 C71.5789714,59.3604 71.6218286,59.2764 71.6218286,59.1924 C71.6218286,59.1306857 71.5961143,59.0432571 71.5498286,58.9318286 L69.8852571,53.7426857 L74.1058286,50.5866857 C74.3509714,50.4255429 74.4726857,50.2678286 74.4726857,50.1152571 C74.4726857,49.8032571 74.2806857,49.6455429 73.8984,49.6455429" id="Fill-29" fill="#472D8B"></path>
                <path d="M34.8449143,49.6455429 C34.7883429,49.6455429 34.7112,49.6506857 34.6152,49.6558286 L29.5186286,49.6644 L27.9672,44.8421143 C27.9054857,44.5695429 27.8403429,44.3946857 27.7752,44.3141143 C27.7083429,44.2352571 27.6089143,44.1941143 27.4769143,44.1941143 C27.3363429,44.1941143 27.2352,44.2352571 27.1734857,44.3141143 C27.1100571,44.3946857 27.0466286,44.5695429 26.9849143,44.8421143 L25.4609143,49.6644 L20.3283429,49.6558286 C20.2374857,49.6506857 20.1672,49.6455429 20.1192,49.6455429 C19.7283429,49.6455429 19.5329143,49.8032571 19.5329143,50.1152571 C19.5329143,50.2678286 19.6563429,50.4255429 19.8997714,50.5866857 L24.1460571,53.7752571 L22.4574857,58.9318286 C22.4094857,59.0432571 22.3854857,59.1255429 22.3854857,59.1821143 C22.3854857,59.2729714 22.4249143,59.3604 22.5037714,59.4478286 C22.5860571,59.5386857 22.6786286,59.5781143 22.7832,59.5781143 C22.9083429,59.5781143 23.0574857,59.5009714 23.2323429,59.3501143 L27.4477714,56.2009714 L31.7214857,59.3501143 C31.8946286,59.5009714 32.0489143,59.5781143 32.1809143,59.5781143 C32.2717714,59.5781143 32.3592,59.5386857 32.4432,59.4478286 C32.5272,59.3604 32.5683429,59.2764 32.5683429,59.1924 C32.5683429,59.1306857 32.5426286,59.0432571 32.4963429,58.9318286 L30.8317714,53.7426857 L35.0523429,50.5866857 C35.2974857,50.4255429 35.4192,50.2678286 35.4192,50.1152571 C35.4192,49.8032571 35.2272,49.6455429 34.8449143,49.6455429" id="Fill-31" fill="#472D8B"></path>
                <path d="M15.318,49.6455429 C15.2614286,49.6455429 15.1842857,49.6506857 15.0882857,49.6558286 L9.99171429,49.6644 L8.44028571,44.8421143 C8.37857143,44.5695429 8.31342857,44.3946857 8.24828571,44.3141143 C8.17971429,44.2352571 8.082,44.1941143 7.94828571,44.1941143 C7.80942857,44.1941143 7.70828571,44.2352571 7.64485714,44.3141143 C7.58314286,44.3946857 7.51971429,44.5695429 7.458,44.8421143 L5.93228571,49.6644 L0.801428571,49.6558286 C0.710571429,49.6506857 0.640285714,49.6455429 0.592285714,49.6455429 C0.199714286,49.6455429 0.006,49.8032571 0.006,50.1152571 C0.006,50.2678286 0.127714286,50.4255429 0.371142857,50.5866857 L4.61914286,53.7752571 L2.93057143,58.9318286 C2.88257143,59.0432571 2.85857143,59.1255429 2.85857143,59.1821143 C2.85857143,59.2729714 2.898,59.3604 2.97685714,59.4478286 C3.05742857,59.5386857 3.15,59.5781143 3.25457143,59.5781143 C3.37971429,59.5781143 3.53057143,59.5009714 3.70371429,59.3501143 L7.92085714,56.2009714 L12.1945714,59.3501143 C12.3677143,59.5009714 12.522,59.5781143 12.654,59.5781143 C12.7448571,59.5781143 12.8305714,59.5386857 12.9145714,59.4478286 C13.0002857,59.3604 13.0414286,59.2764 13.0414286,59.1924 C13.0414286,59.1306857 13.0157143,59.0432571 12.9677143,58.9318286 L11.3048571,53.7426857 L15.5254286,50.5866857 C15.7705714,50.4255429 15.8922857,50.2678286 15.8922857,50.1152571 C15.8922857,49.8032571 15.7002857,49.6455429 15.318,49.6455429" id="Fill-33" fill="#472D8B"></path>
                <path d="M93.4268571,49.6455429 C93.3702857,49.6455429 93.2931429,49.6506857 93.1954286,49.6558286 L88.1005714,49.6644 L86.5491429,44.8421143 C86.4857143,44.5695429 86.4222857,44.3946857 86.3554286,44.3141143 C86.2902857,44.2352571 86.1908571,44.1941143 86.0571429,44.1941143 C85.9182857,44.1941143 85.8171429,44.2352571 85.7537143,44.3141143 C85.692,44.3946857 85.6285714,44.5695429 85.5668571,44.8421143 L84.0428571,49.6644 L78.9102857,49.6558286 C78.8194286,49.6506857 78.7491429,49.6455429 78.7011429,49.6455429 C78.3102857,49.6455429 78.1148571,49.8032571 78.1148571,50.1152571 C78.1148571,50.2678286 78.2365714,50.4255429 78.48,50.5866857 L82.728,53.7752571 L81.0394286,58.9318286 C80.9914286,59.0432571 80.9657143,59.1255429 80.9657143,59.1821143 C80.9657143,59.2729714 81.0068571,59.3604 81.0857143,59.4478286 C81.1662857,59.5386857 81.2588571,59.5781143 81.3634286,59.5781143 C81.4885714,59.5781143 81.6394286,59.5009714 81.8125714,59.3501143 L86.0297143,56.2009714 L90.3034286,59.3501143 C90.4765714,59.5009714 90.6308571,59.5781143 90.7628571,59.5781143 C90.8537143,59.5781143 90.9394286,59.5386857 91.0234286,59.4478286 C91.1074286,59.3604 91.1502857,59.2764 91.1502857,59.1924 C91.1502857,59.1306857 91.1245714,59.0432571 91.0782857,58.9318286 L89.4137143,53.7426857 L93.6342857,50.5866857 C93.8794286,50.4255429 94.0011429,50.2678286 94.0011429,50.1152571 C94.0011429,49.8032571 93.8091429,49.6455429 93.4268571,49.6455429" id="Fill-35" fill="#472D8B"></path>
                <polygon id="Fill-37" fill="#472D8B" points="209.1864 57.8336571 209.1864 53.7605143 215.069829 53.7605143 215.069829 52.0650857 209.1864 52.0650857 209.1864 48.5405143 215.412686 48.5405143 215.412686 46.8433714 207.012686 46.8433714 207.012686 59.5290857 215.734971 59.5290857 215.734971 57.8336571"></polygon>
                <path d="M182.988343,53.9681143 L184.443771,50.4641143 C184.644343,49.9515429 184.826057,49.4338286 185.014629,48.8681143 L185.030057,48.9212571 C185.198057,49.4064 185.372914,49.9104 185.612914,50.5052571 L187.085486,53.9681143 L182.988343,53.9681143 Z M186.3552,46.9481143 L186.308914,46.8418286 L183.843771,46.8418286 L178.563771,59.5309714 L180.872914,59.5309714 L182.4432,55.5932571 L187.632343,55.5932571 L189.264343,59.5309714 L191.631771,59.5309714 L186.3552,46.9481143 Z" id="Fill-39" fill="#472D8B"></path>
                <path d="M198.4536,52.5953143 L196.4496,52.5953143 L196.4496,48.4758857 C196.753029,48.4193143 197.363314,48.3404571 198.3336,48.3404571 C199.5336,48.3404571 201.546171,48.6181714 201.546171,50.4764571 C201.546171,51.7827429 200.359886,52.5953143 198.4536,52.5953143 L198.4536,52.5953143 Z M204.182743,59.2741714 C203.884457,58.7650286 203.524457,57.4724571 203.068457,55.8318857 C202.732457,54.6901714 202.117029,53.8810286 201.275314,53.4696 C202.775314,52.9158857 203.7216,51.7038857 203.7216,50.2930286 C203.7216,49.3227429 203.282743,48.4021714 202.552457,47.8347429 C201.6216,47.0838857 200.2416,46.7341714 198.208457,46.7341714 C196.8816,46.7341714 195.431314,46.8387429 194.4336,47.0101714 L194.291314,47.0341714 L194.291314,59.5313143 L196.4496,59.5313143 L196.4496,54.1827429 L198.283886,54.1827429 C199.883314,54.2530286 200.6016,54.8496 201.026743,56.4713143 C201.463886,58.1547429 201.772457,59.1010286 201.997029,59.4524571 L202.048457,59.5313143 L204.335314,59.5313143 L204.182743,59.2741714 Z" id="Fill-41" fill="#472D8B"></path>
                <path d="M172.868229,48.3212571 C174.020229,48.3212571 175.1568,48.5355429 175.983086,48.9092571 L176.156229,48.9864 L176.730514,47.3252571 L176.588229,47.2618286 C176.259086,47.1109714 175.0128,46.6224 172.789371,46.6224 C168.061371,46.6224 164.761371,49.3584 164.761371,53.2806857 C164.761371,57.2115429 167.739086,59.7486857 172.345371,59.7486857 C174.351086,59.7486857 175.8648,59.3766857 176.5488,59.0578286 L176.684229,58.9961143 L176.202514,57.3658286 L176.024229,57.4446857 C175.197943,57.8012571 173.967086,58.0155429 172.731086,58.0155429 C169.271657,58.0155429 167.037943,56.1486857 167.037943,53.2584 C167.037943,50.2138286 169.271657,48.3212571 172.868229,48.3212571" id="Fill-43" fill="#472D8B"></path>
                <path d="M105.743314,53.9681143 L107.198743,50.4641143 C107.3976,49.9566857 107.581029,49.4406857 107.7696,48.8646857 C107.778171,48.8921143 107.785029,48.9161143 107.795314,48.9401143 C107.959886,49.4218286 108.131314,49.9189714 108.371314,50.5052571 L109.842171,53.9681143 L105.743314,53.9681143 Z M109.110171,46.9481143 L109.063886,46.8418286 L106.600457,46.8418286 L101.318743,59.5309714 L103.627886,59.5309714 L105.198171,55.5932571 L110.389029,55.5932571 L112.019314,59.5309714 L114.386743,59.5309714 L109.110171,46.9481143 Z" id="Fill-45" fill="#472D8B"></path>
                <path d="M153.316457,56.3235429 C152.2296,57.4069714 150.479314,57.9795429 148.255886,57.9795429 C147.479314,57.9898286 146.737029,57.9812571 146.214171,57.9246857 L146.214171,48.5544 C146.711314,48.4755429 147.4896,48.3932571 148.540457,48.3932571 C150.758743,48.3932571 152.4696,48.9384 153.491314,49.9652571 C154.2456,50.7264 154.622743,51.7292571 154.615886,52.9498286 C154.615886,54.3109714 154.166743,55.4766857 153.316457,56.3235429 M154.878171,48.5321143 C153.457029,47.3389714 151.3056,46.7338286 148.480457,46.7338286 C147.014743,46.7338286 145.528457,46.8281143 144.184457,47.0098286 L144.037029,47.0286857 L144.037029,59.4984 L144.193029,59.5138286 C145.310743,59.6115429 146.5176,59.6595429 147.877029,59.6595429 C150.844457,59.6595429 153.2856,58.9549714 154.759886,57.6744 C156.134743,56.4606857 156.892457,54.7566857 156.892457,52.8744 C156.892457,51.0846857 156.232457,49.6652571 154.878171,48.5321143" id="Fill-47" fill="#472D8B"></path>
                <polygon id="Fill-49" fill="#472D8B" points="134.382171 53.7605143 140.2656 53.7605143 140.2656 52.0650857 134.382171 52.0650857 134.382171 48.5388 140.606743 48.5388 140.606743 46.8416571 132.206743 46.8416571 132.206743 59.5290857 140.932457 59.5290857 140.932457 57.8336571 134.382171 57.8336571"></polygon>
                <path d="M123.4536,54.3464571 L126.517029,54.3464571 L126.517029,57.6327429 C125.978743,57.8401714 125.039314,57.9601714 123.907886,57.9601714 C120.422743,57.9601714 118.175314,56.0813143 118.175314,53.1687429 C118.175314,50.2784571 120.496457,48.4116 124.0896,48.4116 C125.774743,48.4116 126.803314,48.7304571 127.511314,49.0081714 L127.6776,49.0716 L128.251886,47.4327429 L128.104457,47.3710286 C127.398171,47.0658857 125.935886,46.7161714 124.147886,46.7161714 C118.482171,46.7161714 115.902171,50.0984571 115.902171,53.2424571 C115.902171,55.0681714 116.639314,56.7430286 117.931886,57.8401714 C119.354743,59.0641714 121.259314,59.6607429 123.746743,59.6607429 C126.061029,59.6607429 127.879886,59.1138857 128.557029,58.8807429 L128.671886,58.8396 L128.671886,52.7024571 L123.4536,52.7024571 L123.4536,54.3464571 Z" id="Fill-51" fill="#472D8B"></path>
            </g>
        </g>
    </g>
</svg>